{
	"asset":{
		"generator":"Khronos glTF Blender I/O v3.5.30",
		"version":"2.0"
	},
	"scene":0,
	"scenes":[
		{
			"name":"Scene",
			"nodes":[
				26
			]
		}
	],
	"nodes":[
		{
			"mesh":0,
			"name":"CHAR_Cooper.001"
		},
		{
			"mesh":1,
			"name":"CHAR_Cooper.002"
		},
		{
			"mesh":2,
			"name":"CHAR_Cooper.003"
		},
		{
			"children":[
				0,
				1,
				2
			],
			"name":"CHAR_Cooper"
		},
		{
			"name":"Ground",
			"scale":[
				1.8967100381851196,
				1.8967100381851196,
				1.8967100381851196
			]
		},
		{
			"name":"Hemi_Top.002"
		},
		{
			"children":[
				5
			],
			"name":"Hemi_Top.001",
			"rotation":[
				1,
				0,
				0,
				0
			],
			"translation":[
				2.0721399784088135,
				-1.426200032234192,
				-4.4556498527526855
			]
		},
		{
			"name":"Point.004"
		},
		{
			"children":[
				7
			],
			"name":"Point.005",
			"rotation":[
				0.9948843717575073,
				-0.004441365133970976,
				0.1009216383099556,
				0.0004724878817796707
			],
			"scale":[
				0.026592684909701347,
				0.026591092348098755,
				0.026591746136546135
			],
			"translation":[
				0.808459997177124,
				0.053360000252723694,
				-0.7788100242614746
			]
		},
		{
			"name":"Point.003",
			"translation":[
				0,
				0,
				-3.573484718799591e-06
			]
		},
		{
			"children":[
				9
			],
			"name":"Point.006",
			"rotation":[
				-0.9792938232421875,
				0.004416346084326506,
				-0.0008641234016977251,
				0.2023940086364746
			],
			"scale":[
				0.02659108303487301,
				0.026589253917336464,
				0.026588493958115578
			],
			"translation":[
				-0.08408000320196152,
				1.036579966545105,
				-0.7788100242614746
			]
		},
		{
			"name":"Point.002"
		},
		{
			"children":[
				11
			],
			"name":"Point.007",
			"rotation":[
				-0.9768213629722595,
				0.0044268956407904625,
				0.21400821208953857,
				0.0009622799698263407
			],
			"scale":[
				0.026597149670124054,
				0.026591086760163307,
				0.02659643068909645
			],
			"translation":[
				-0.7526199817657471,
				0.22899000346660614,
				-0.7788100242614746
			]
		},
		{
			"name":"Point.001"
		},
		{
			"children":[
				13
			],
			"name":"Point.008",
			"rotation":[
				0.9314159750938416,
				-0.004440970718860626,
				-0.0006054536788724363,
				0.36392882466316223
			],
			"scale":[
				0.026591064408421516,
				0.026595639064908028,
				0.02659508027136326
			],
			"translation":[
				-0.027620000764727592,
				-0.9587500095367432,
				-0.7788100242614746
			]
		},
		{
			"name":"Point.010"
		},
		{
			"children":[
				15
			],
			"name":"Point.009",
			"rotation":[
				0,
				0.10092264413833618,
				0,
				0.9948943853378296
			],
			"scale":[
				0.026591692119836807,
				0.026590000838041306,
				0.026591692119836807
			],
			"translation":[
				0.8087599873542786,
				0.9002199769020081,
				3.347320079803467
			]
		},
		{
			"name":"Point.012",
			"translation":[
				-3.814697265625e-06,
				3.814697265625e-06,
				0
			]
		},
		{
			"children":[
				17
			],
			"name":"Point.011",
			"rotation":[
				-0.2503286600112915,
				0,
				0,
				0.9681609272956848
			],
			"scale":[
				0.026590000838041306,
				0.02659284882247448,
				0.02659284882247448
			],
			"translation":[
				-0.8534700274467468,
				1.1389199495315552,
				3.347320079803467
			]
		},
		{
			"name":"Point.014"
		},
		{
			"children":[
				19
			],
			"name":"Point.013",
			"rotation":[
				0.20239605009555817,
				0,
				0,
				0.979303777217865
			],
			"scale":[
				0.026590000838041306,
				0.026588337495923042,
				0.026588337495923042
			],
			"translation":[
				0.9741500020027161,
				-0.8558300137519836,
				3.347320079803467
			]
		},
		{
			"name":"Point.016",
			"translation":[
				0,
				2.159531504730694e-06,
				0
			]
		},
		{
			"children":[
				21
			],
			"name":"Point.015",
			"rotation":[
				0,
				-0.06916502863168716,
				0,
				0.9976053237915039
			],
			"scale":[
				0.02659444510936737,
				0.026590000838041306,
				0.02659444510936737
			],
			"translation":[
				-0.7538300156593323,
				-1.2726000547409058,
				3.347320079803467
			]
		},
		{
			"name":"Sun.001",
			"translation":[
				4.5299530029296875e-06,
				0,
				0
			]
		},
		{
			"children":[
				23
			],
			"name":"Sun",
			"rotation":[
				-0.11022794991731644,
				-0.3155313730239868,
				0.012769153341650963,
				0.9424047470092773
			],
			"scale":[
				0.02659345418214798,
				0.02659502439200878,
				0.026591552421450615
			],
			"translation":[
				-1.5341299772262573,
				0.9238700270652771,
				3.046260118484497
			]
		},
		{
			"children":[
				3,
				4,
				6,
				8,
				10,
				12,
				14,
				16,
				18,
				20,
				22,
				24
			],
			"name":"Root"
		},
		{
			"children":[
				25
			],
			"name":"Sketchfab_model",
			"rotation":[
				-0.70710688829422,
				0,
				0,
				0.7071066498756409
			]
		}
	],
	"materials":[
		{
			"name":"MAT_CHAR_Cooper_Head",
			"pbrMetallicRoughness":{}
		},
		{
			"name":"MAT_CHAR_Cooper_Body",
			"pbrMetallicRoughness":{}
		},
		{
			"alphaMode":"BLEND",
			"name":"Glass",
			"pbrMetallicRoughness":{}
		}
	],
	"meshes":[
		{
			"name":"CHAR_Cooper",
			"primitives":[
				{
					"attributes":{
						"POSITION":0,
						"TEXCOORD_0":1,
						"TEXCOORD_1":2,
						"TEXCOORD_2":3,
						"TEXCOORD_3":4,
						"TEXCOORD_4":5,
						"TEXCOORD_5":6,
						"NORMAL":7
					},
					"indices":8,
					"material":0
				}
			]
		},
		{
			"name":"CHAR_Cooper.001",
			"primitives":[
				{
					"attributes":{
						"POSITION":9,
						"TEXCOORD_0":10,
						"TEXCOORD_1":11,
						"TEXCOORD_2":12,
						"TEXCOORD_3":13,
						"TEXCOORD_4":14,
						"NORMAL":15
					},
					"indices":16,
					"material":1
				}
			]
		},
		{
			"name":"CHAR_Cooper.002",
			"primitives":[
				{
					"attributes":{
						"POSITION":17,
						"TEXCOORD_0":18,
						"NORMAL":19
					},
					"indices":20,
					"material":2
				}
			]
		}
	],
	"accessors":[
		{
			"bufferView":0,
			"componentType":5126,
			"count":2321,
			"max":[
				0.19505000114440918,
				0.2353000044822693,
				1.8059099912643433
			],
			"min":[
				-0.19505000114440918,
				-0.19641000032424927,
				1.0223100185394287
			],
			"type":"VEC3"
		},
		{
			"bufferView":1,
			"componentType":5126,
			"count":2321,
			"type":"VEC2"
		},
		{
			"bufferView":2,
			"componentType":5126,
			"count":2321,
			"type":"VEC2"
		},
		{
			"bufferView":3,
			"componentType":5126,
			"count":2321,
			"type":"VEC2"
		},
		{
			"bufferView":4,
			"componentType":5126,
			"count":2321,
			"type":"VEC2"
		},
		{
			"bufferView":5,
			"componentType":5126,
			"count":2321,
			"type":"VEC2"
		},
		{
			"bufferView":6,
			"componentType":5126,
			"count":2321,
			"type":"VEC2"
		},
		{
			"bufferView":7,
			"componentType":5126,
			"count":2321,
			"type":"VEC3"
		},
		{
			"bufferView":8,
			"componentType":5123,
			"count":7260,
			"type":"SCALAR"
		},
		{
			"bufferView":9,
			"componentType":5126,
			"count":4775,
			"max":[
				0.37814998626708984,
				0.17494000494480133,
				1.8894399404525757
			],
			"min":[
				-0.3670699894428253,
				-0.20589999854564667,
				-0.003019999945536256
			],
			"type":"VEC3"
		},
		{
			"bufferView":10,
			"componentType":5126,
			"count":4775,
			"type":"VEC2"
		},
		{
			"bufferView":11,
			"componentType":5126,
			"count":4775,
			"type":"VEC2"
		},
		{
			"bufferView":12,
			"componentType":5126,
			"count":4775,
			"type":"VEC2"
		},
		{
			"bufferView":13,
			"componentType":5126,
			"count":4775,
			"type":"VEC2"
		},
		{
			"bufferView":14,
			"componentType":5126,
			"count":4775,
			"type":"VEC2"
		},
		{
			"bufferView":15,
			"componentType":5126,
			"count":4775,
			"type":"VEC3"
		},
		{
			"bufferView":16,
			"componentType":5123,
			"count":17946,
			"type":"SCALAR"
		},
		{
			"bufferView":17,
			"componentType":5126,
			"count":45,
			"max":[
				0.1264200061559677,
				-0.07705000042915344,
				1.799049973487854
			],
			"min":[
				-0.08634000271558762,
				-0.22492000460624695,
				1.6061400175094604
			],
			"type":"VEC3"
		},
		{
			"bufferView":18,
			"componentType":5126,
			"count":45,
			"type":"VEC2"
		},
		{
			"bufferView":19,
			"componentType":5126,
			"count":45,
			"type":"VEC3"
		},
		{
			"bufferView":20,
			"componentType":5123,
			"count":186,
			"type":"SCALAR"
		}
	],
	"bufferViews":[
		{
			"buffer":0,
			"byteLength":27852,
			"byteOffset":0,
			"target":34962
		},
		{
			"buffer":0,
			"byteLength":18568,
			"byteOffset":27852,
			"target":34962
		},
		{
			"buffer":0,
			"byteLength":18568,
			"byteOffset":46420,
			"target":34962
		},
		{
			"buffer":0,
			"byteLength":18568,
			"byteOffset":64988,
			"target":34962
		},
		{
			"buffer":0,
			"byteLength":18568,
			"byteOffset":83556,
			"target":34962
		},
		{
			"buffer":0,
			"byteLength":18568,
			"byteOffset":102124,
			"target":34962
		},
		{
			"buffer":0,
			"byteLength":18568,
			"byteOffset":120692,
			"target":34962
		},
		{
			"buffer":0,
			"byteLength":27852,
			"byteOffset":139260,
			"target":34962
		},
		{
			"buffer":0,
			"byteLength":14520,
			"byteOffset":167112,
			"target":34963
		},
		{
			"buffer":0,
			"byteLength":57300,
			"byteOffset":181632,
			"target":34962
		},
		{
			"buffer":0,
			"byteLength":38200,
			"byteOffset":238932,
			"target":34962
		},
		{
			"buffer":0,
			"byteLength":38200,
			"byteOffset":277132,
			"target":34962
		},
		{
			"buffer":0,
			"byteLength":38200,
			"byteOffset":315332,
			"target":34962
		},
		{
			"buffer":0,
			"byteLength":38200,
			"byteOffset":353532,
			"target":34962
		},
		{
			"buffer":0,
			"byteLength":38200,
			"byteOffset":391732,
			"target":34962
		},
		{
			"buffer":0,
			"byteLength":57300,
			"byteOffset":429932,
			"target":34962
		},
		{
			"buffer":0,
			"byteLength":35892,
			"byteOffset":487232,
			"target":34963
		},
		{
			"buffer":0,
			"byteLength":540,
			"byteOffset":523124,
			"target":34962
		},
		{
			"buffer":0,
			"byteLength":360,
			"byteOffset":523664,
			"target":34962
		},
		{
			"buffer":0,
			"byteLength":540,
			"byteOffset":524024,
			"target":34962
		},
		{
			"buffer":0,
			"byteLength":372,
			"byteOffset":524564,
			"target":34963
		}
	],
	"buffers":[
		{
			"byteLength":524936,
			"uri":"data:application/octet-stream;base64,"
		}
	]
}
