{
  "accessors": [
    {
      "bufferView": 2,
      "componentType": 5126,
      "count": 4258,
      "max": [
        30446.14453125,
        17840.53515625,
        668.2747802734375
      ],
      "min": [
        -11918.365234375,
        -11238.984375,
        -72.3727035522461
      ],
      "type": "VEC3"
    },
    {
      "bufferView": 2,
      "byteOffset": 51096,
      "componentType": 5126,
      "count": 4258,
      "max": [
        0.7432292699813843,
        0.986877977848053,
        1.0
      ],
      "min": [
        -0.796331524848938,
        -0.9777092933654785,
        0.11150181293487549
      ],
      "type": "VEC3"
    },
    {
      "bufferView": 1,
      "componentType": 5126,
      "count": 4258,
      "max": [
        49.600799560546875,
        48.29349899291992
      ],
      "min": [
        0.2549999952316284,
        6.3069000244140625
      ],
      "type": "VEC2"
    },
    {
      "bufferView": 0,
      "componentType": 5125,
      "count": 6765,
      "type": "SCALAR"
    },
    {
      "bufferView": 2,
      "byteOffset": 102192,
      "componentType": 5126,
      "count": 63536,
      "max": [
        6500.0,
        5500.0,
        327.21160888671875
      ],
      "min": [
        -4500.0,
        -5503.58203125,
        -27.14739990234375
      ],
      "type": "VEC3"
    },
    {
      "bufferView": 2,
      "byteOffset": 864624,
      "componentType": 5126,
      "count": 63536,
      "max": [
        0.9956375956535339,
        0.9955064654350281,
        1.0
      ],
      "min": [
        -0.9856542944908142,
        -0.990018904209137,
        0.028200551867485046
      ],
      "type": "VEC3"
    },
    {
      "bufferView": 1,
      "byteOffset": 34064,
      "componentType": 5126,
      "count": 63536,
      "max": [
        30.64069938659668,
        30.47559928894043
      ],
      "min": [
        8.895899772644043,
        5.9944000244140625
      ],
      "type": "VEC2"
    },
    {
      "bufferView": 0,
      "byteOffset": 27060,
      "componentType": 5125,
      "count": 372261,
      "type": "SCALAR"
    },
    {
      "bufferView": 2,
      "byteOffset": 1627056,
      "componentType": 5126,
      "count": 10906,
      "max": [
        3564.580810546875,
        -5853.6435546875,
        1268.2813720703125
      ],
      "min": [
        -6883.015625,
        -15607.0517578125,
        -67.41899871826172
      ],
      "type": "VEC3"
    },
    {
      "bufferView": 2,
      "byteOffset": 1757928,
      "componentType": 5126,
      "count": 10906,
      "max": [
        0.6827028393745422,
        0.7601906061172485,
        0.9999874830245972
      ],
      "min": [
        -0.8888121843338013,
        -0.7853295803070068,
        -0.962368369102478
      ],
      "type": "VEC3"
    },
    {
      "bufferView": 1,
      "byteOffset": 542352,
      "componentType": 5126,
      "count": 10906,
      "max": [
        18.289400100708008,
        14.082500457763672
      ],
      "min": [
        6.120200157165527,
        0.0
      ],
      "type": "VEC2"
    },
    {
      "bufferView": 0,
      "byteOffset": 1516104,
      "componentType": 5125,
      "count": 63921,
      "type": "SCALAR"
    },
    {
      "bufferView": 2,
      "byteOffset": 1888800,
      "componentType": 5126,
      "count": 880,
      "max": [
        -5358.75,
        -6270.0615234375,
        535.8015747070313
      ],
      "min": [
        -11607.0693359375,
        -12705.8251953125,
        107.43499755859375
      ],
      "type": "VEC3"
    },
    {
      "bufferView": 2,
      "byteOffset": 1899360,
      "componentType": 5126,
      "count": 880,
      "max": [
        0.5489144325256348,
        0.40788859128952026,
        1.0
      ],
      "min": [
        -0.32970407605171204,
        -0.33848047256469727,
        0.8314217925071716
      ],
      "type": "VEC3"
    },
    {
      "bufferView": 1,
      "byteOffset": 629600,
      "componentType": 5126,
      "count": 880,
      "max": [
        7.895599842071533,
        13.481300354003906
      ],
      "min": [
        0.6176000237464905,
        4.189000129699707
      ],
      "type": "VEC2"
    },
    {
      "bufferView": 0,
      "byteOffset": 1771788,
      "componentType": 5125,
      "count": 4710,
      "type": "SCALAR"
    },
    {
      "bufferView": 2,
      "byteOffset": 1909920,
      "componentType": 5126,
      "count": 4362,
      "max": [
        -3405.65478515625,
        3680.650390625,
        2284.314697265625
      ],
      "min": [
        -12137.3271484375,
        -6555.51513671875,
        43.46770095825195
      ],
      "type": "VEC3"
    },
    {
      "bufferView": 2,
      "byteOffset": 1962264,
      "componentType": 5126,
      "count": 4362,
      "max": [
        0.6420833468437195,
        0.5349048972129822,
        1.0
      ],
      "min": [
        -0.6345152258872986,
        -0.5411991477012634,
        0.7629005312919617
      ],
      "type": "VEC3"
    },
    {
      "bufferView": 1,
      "byteOffset": 636640,
      "componentType": 5126,
      "count": 4362,
      "max": [
        10.170599937438965,
        27.84869956970215
      ],
      "min": [
        0.0,
        13.069100379943848
      ],
      "type": "VEC2"
    },
    {
      "bufferView": 0,
      "byteOffset": 1790628,
      "componentType": 5125,
      "count": 25239,
      "type": "SCALAR"
    },
    {
      "bufferView": 2,
      "byteOffset": 2014608,
      "componentType": 5126,
      "count": 1296,
      "max": [
        -7242.0771484375,
        -7534.984375,
        541.038330078125
      ],
      "min": [
        -11001.466796875,
        -11251.8212890625,
        357.8953857421875
      ],
      "type": "VEC3"
    },
    {
      "bufferView": 2,
      "byteOffset": 2030160,
      "componentType": 5126,
      "count": 1296,
      "max": [
        0.497889906167984,
        0.5461073517799377,
        1.0
      ],
      "min": [
        -0.5030114054679871,
        -0.4518282115459442,
        0.8014011383056641
      ],
      "type": "VEC3"
    },
    {
      "bufferView": 1,
      "byteOffset": 671536,
      "componentType": 5126,
      "count": 1296,
      "max": [
        5.701900005340576,
        11.654899597167969
      ],
      "min": [
        1.3229999542236328,
        6.288300037384033
      ],
      "type": "VEC2"
    },
    {
      "bufferView": 0,
      "byteOffset": 1891584,
      "componentType": 5125,
      "count": 7350,
      "type": "SCALAR"
    },
    {
      "bufferView": 2,
      "byteOffset": 2045712,
      "componentType": 5126,
      "count": 2868,
      "max": [
        -8285.650390625,
        -765.2733154296875,
        2406.4853515625
      ],
      "min": [
        -9723.701171875,
        -2215.214599609375,
        1992.7554931640625
      ],
      "type": "VEC3"
    },
    {
      "bufferView": 2,
      "byteOffset": 2080128,
      "componentType": 5126,
      "count": 2868,
      "max": [
        0.9652090072631836,
        0.7914915680885315,
        1.0
      ],
      "min": [
        -0.8844686150550842,
        -0.7643319964408875,
        0.2537023425102234
      ],
      "type": "VEC3"
    },
    {
      "bufferView": 1,
      "byteOffset": 681904,
      "componentType": 5126,
      "count": 2868,
      "max": [
        4.486400127410889,
        21.429399490356445
      ],
      "min": [
        2.8113999366760254,
        19.335899353027344
      ],
      "type": "VEC2"
    },
    {
      "bufferView": 0,
      "byteOffset": 1920984,
      "componentType": 5125,
      "count": 16566,
      "type": "SCALAR"
    },
    {
      "bufferView": 2,
      "byteOffset": 2114544,
      "componentType": 5126,
      "count": 25086,
      "max": [
        30788.84765625,
        19022.4296875,
        920.9168701171875
      ],
      "min": [
        5969.86865234375,
        -10616.4052734375,
        -178.1739959716797
      ],
      "type": "VEC3"
    },
    {
      "bufferView": 2,
      "byteOffset": 2415576,
      "componentType": 5126,
      "count": 25086,
      "max": [
        0.6703293323516846,
        0.647006094455719,
        1.0
      ],
      "min": [
        -0.6287318468093872,
        -0.6415078639984131,
        0.7148075103759766
      ],
      "type": "VEC3"
    },
    {
      "bufferView": 1,
      "byteOffset": 704848,
      "componentType": 5126,
      "count": 25086,
      "max": [
        50.0,
        50.0
      ],
      "min": [
        21.091100692749023,
        7.2058000564575195
      ],
      "type": "VEC2"
    },
    {
      "bufferView": 0,
      "byteOffset": 1987248,
      "componentType": 5125,
      "count": 148188,
      "type": "SCALAR"
    },
    {
      "bufferView": 2,
      "byteOffset": 2716608,
      "componentType": 5126,
      "count": 2640,
      "max": [
        7560.0234375,
        11941.5009765625,
        1045.3599853515625
      ],
      "min": [
        494.923095703125,
        5429.626953125,
        -181.639892578125
      ],
      "type": "VEC3"
    },
    {
      "bufferView": 2,
      "byteOffset": 2748288,
      "componentType": 5126,
      "count": 2640,
      "max": [
        0.9995794892311096,
        0.5857130885124207,
        1.0
      ],
      "min": [
        -0.5996963977813721,
        -0.5551110506057739,
        -0.15779510140419006
      ],
      "type": "VEC3"
    },
    {
      "bufferView": 1,
      "byteOffset": 905536,
      "componentType": 5126,
      "count": 2640,
      "max": [
        35.28609848022461,
        39.77619934082031
      ],
      "min": [
        14.713899612426758,
        30.373899459838867
      ],
      "type": "VEC2"
    },
    {
      "bufferView": 0,
      "byteOffset": 2580000,
      "componentType": 5125,
      "count": 14904,
      "type": "SCALAR"
    },
    {
      "bufferView": 2,
      "byteOffset": 2779968,
      "componentType": 5126,
      "count": 9155,
      "max": [
        9567.52734375,
        -5984.298828125,
        1720.19091796875
      ],
      "min": [
        2027.443359375,
        -14702.681640625,
        -327.8091125488281
      ],
      "type": "VEC3"
    },
    {
      "bufferView": 2,
      "byteOffset": 2889828,
      "componentType": 5126,
      "count": 9155,
      "max": [
        0.8820856809616089,
        0.8095858097076416,
        0.9999867677688599
      ],
      "min": [
        -0.6414799094200134,
        -0.8114121556282043,
        0.2646957039833069
      ],
      "type": "VEC3"
    },
    {
      "bufferView": 1,
      "byteOffset": 926656,
      "componentType": 5126,
      "count": 9155,
      "max": [
        29.643999099731445,
        13.893899917602539
      ],
      "min": [
        16.499000549316406,
        1.305799961090088
      ],
      "type": "VEC2"
    },
    {
      "bufferView": 0,
      "byteOffset": 2639616,
      "componentType": 5125,
      "count": 53556,
      "type": "SCALAR"
    }
  ],
  "asset": {
    "extras": {
      "author": "AkinD (https://sketchfab.com/akinaty)",
      "license": "CC-BY-4.0 (http://creativecommons.org/licenses/by/4.0/)",
      "source": "https://sketchfab.com/3d-models/terrain-7ec6d956393f44ddbb69a42196659732",
      "title": "Terrain"
    },
    "generator": "Sketchfab-12.68.0",
    "version": "2.0"
  },
  "bufferViews": [
    {
      "buffer": 0,
      "byteLength": 2853840,
      "name": "floatBufferViews",
      "target": 34963
    },
    {
      "buffer": 0,
      "byteLength": 999896,
      "byteOffset": 2853840,
      "byteStride": 8,
      "name": "floatBufferViews",
      "target": 34962
    },
    {
      "buffer": 0,
      "byteLength": 2999688,
      "byteOffset": 3853736,
      "byteStride": 12,
      "name": "floatBufferViews",
      "target": 34962
    }
  ],
  "buffers": [
    {
      "byteLength": 6853424,
      "uri": "scene.bin"
    }
  ],
  "images": [
    {
      "uri": "textures/Material__25_baseColor.jpeg"
    }
  ],
  "materials": [
    {
      "doubleSided": true,
      "name": "Material__25",
      "pbrMetallicRoughness": {
        "baseColorTexture": {
          "index": 0
        },
        "metallicFactor": 0.0,
        "roughnessFactor": 0.6
      }
    }
  ],
  "meshes": [
    {
      "name": "Object_0",
      "primitives": [
        {
          "attributes": {
            "NORMAL": 1,
            "POSITION": 0,
            "TEXCOORD_0": 2
          },
          "indices": 3,
          "material": 0,
          "mode": 4
        }
      ]
    },
    {
      "name": "Object_1",
      "primitives": [
        {
          "attributes": {
            "NORMAL": 5,
            "POSITION": 4,
            "TEXCOORD_0": 6
          },
          "indices": 7,
          "material": 0,
          "mode": 4
        }
      ]
    },
    {
      "name": "Object_2",
      "primitives": [
        {
          "attributes": {
            "NORMAL": 9,
            "POSITION": 8,
            "TEXCOORD_0": 10
          },
          "indices": 11,
          "material": 0,
          "mode": 4
        }
      ]
    },
    {
      "name": "Object_3",
      "primitives": [
        {
          "attributes": {
            "NORMAL": 13,
            "POSITION": 12,
            "TEXCOORD_0": 14
          },
          "indices": 15,
          "material": 0,
          "mode": 4
        }
      ]
    },
    {
      "name": "Object_4",
      "primitives": [
        {
          "attributes": {
            "NORMAL": 17,
            "POSITION": 16,
            "TEXCOORD_0": 18
          },
          "indices": 19,
          "material": 0,
          "mode": 4
        }
      ]
    },
    {
      "name": "Object_5",
      "primitives": [
        {
          "attributes": {
            "NORMAL": 21,
            "POSITION": 20,
            "TEXCOORD_0": 22
          },
          "indices": 23,
          "material": 0,
          "mode": 4
        }
      ]
    },
    {
      "name": "Object_6",
      "primitives": [
        {
          "attributes": {
            "NORMAL": 25,
            "POSITION": 24,
            "TEXCOORD_0": 26
          },
          "indices": 27,
          "material": 0,
          "mode": 4
        }
      ]
    },
    {
      "name": "Object_7",
      "primitives": [
        {
          "attributes": {
            "NORMAL": 29,
            "POSITION": 28,
            "TEXCOORD_0": 30
          },
          "indices": 31,
          "material": 0,
          "mode": 4
        }
      ]
    },
    {
      "name": "Object_8",
      "primitives": [
        {
          "attributes": {
            "NORMAL": 33,
            "POSITION": 32,
            "TEXCOORD_0": 34
          },
          "indices": 35,
          "material": 0,
          "mode": 4
        }
      ]
    },
    {
      "name": "Object_9",
      "primitives": [
        {
          "attributes": {
            "NORMAL": 37,
            "POSITION": 36,
            "TEXCOORD_0": 38
          },
          "indices": 39,
          "material": 0,
          "mode": 4
        }
      ]
    }
  ],
  "nodes": [
    {
      "children": [
        1
      ],
      "matrix": [
        0.03621834143996239,
        0.0,
        0.0,
        0.0,
        0.0,
        8.042087316076338e-18,
        -0.03621834143996239,
        0.0,
        0.0,
        0.03621834143996239,
        8.042087316076338e-18,
        0.0,
        0.0,
        0.0,
        0.0,
        1.0
      ],
      "name": "Sketchfab_model"
    },
    {
      "children": [
        2,
        3,
        4,
        5,
        6,
        7,
        8,
        9,
        10,
        11
      ],
      "name": "ter.obj.cleaner"
    },
    {
      "mesh": 0,
      "name": "Object_2"
    },
    {
      "mesh": 1,
      "name": "Object_3"
    },
    {
      "mesh": 2,
      "name": "Object_4"
    },
    {
      "mesh": 3,
      "name": "Object_5"
    },
    {
      "mesh": 4,
      "name": "Object_6"
    },
    {
      "mesh": 5,
      "name": "Object_7"
    },
    {
      "mesh": 6,
      "name": "Object_8"
    },
    {
      "mesh": 7,
      "name": "Object_9"
    },
    {
      "mesh": 8,
      "name": "Object_10"
    },
    {
      "mesh": 9,
      "name": "Object_11"
    }
  ],
  "samplers": [
    {
      "magFilter": 9729,
      "minFilter": 9987,
      "wrapS": 10497,
      "wrapT": 10497
    }
  ],
  "scene": 0,
  "scenes": [
    {
      "name": "Sketchfab_Scene",
      "nodes": [
        0
      ]
    }
  ],
  "textures": [
    {
      "sampler": 0,
      "source": 0
    }
  ]
}
